<svg preserveAspectRatio="none" overflow="visible" style="display: block;" width="17.916" height="17.916" viewBox="0 0 17.916 17.916" fill="none" xmlns="http://www.w3.org/2000/svg">
<g id="elements">
<path id="Icon" d="M3.95801 10C6.14413 10 7.91602 11.7719 7.91602 13.958C7.91602 16.1441 6.14413 17.916 3.95801 17.916C1.77188 17.916 0 16.1441 0 13.958C0 11.7719 1.77188 10 3.95801 10ZM13.958 10C16.1441 10 17.916 11.7719 17.916 13.958C17.916 16.1441 16.1441 17.916 13.958 17.916C11.7719 17.916 10 16.1441 10 13.958C10 11.7719 11.7719 10 13.958 10ZM3.95801 0C6.14413 1.69133e-07 7.91602 1.77188 7.91602 3.95801C7.91602 6.14413 6.14413 7.91602 3.95801 7.91602C1.77188 7.91602 1.69131e-07 6.14413 0 3.95801C0 1.77188 1.77188 0 3.95801 0ZM13.958 0C16.1441 0 17.916 1.77188 17.916 3.95801C17.916 6.14413 16.1441 7.91602 13.958 7.91602C11.7719 7.91602 10 6.14413 10 3.95801C10 1.77188 11.7719 0 13.958 0Z" fill="white"/>
</g>
</svg>
