<svg preserveAspectRatio="none" overflow="visible" style="display: block;" width="20.4999" height="19.4999" viewBox="0 0 20.4999 19.4999" fill="none" xmlns="http://www.w3.org/2000/svg">
<g id="elements">
<path id="Icon" d="M8.67713 0.954287C9.33197 -0.318132 11.1677 -0.318059 11.8226 0.954287L14.0297 5.24237C14.0663 5.31339 14.1347 5.36259 14.2142 5.37519L19.0101 6.13202C20.4327 6.3564 21 8.08284 19.9828 9.09296L16.5492 12.5021C16.4923 12.5586 16.4664 12.6392 16.4789 12.718L17.2357 17.4758C17.46 18.8859 15.9752 19.9536 14.6908 19.3058L10.3646 17.1232C10.2927 17.087 10.2071 17.087 10.1351 17.1232L5.80994 19.3058C4.52546 19.9539 3.04073 18.886 3.26502 17.4758L4.02088 12.718C4.03341 12.6392 4.00743 12.5586 3.95057 12.5021L0.516973 9.09296C-0.50011 8.08282 0.0670798 6.35639 1.48963 6.13202L6.28553 5.37519C6.36516 5.36262 6.43446 5.31353 6.47107 5.24237L8.67713 0.954287Z" fill="#F8B015"/>
</g>
</svg>
