<svg preserveAspectRatio="none" overflow="visible" style="display: block;" width="633" height="340" viewBox="0 0 633 340" fill="none" xmlns="http://www.w3.org/2000/svg">
<path id="Vector" d="M41.9783 1.01458e-07L41.9783 340M126.539 1.01458e-07L126.539 340M84.2588 1.01458e-07L84.2588 340M168.82 1.01458e-07L168.82 340M211.101 1.01458e-07L211.101 340M253.381 1.01458e-07L253.381 340M295.662 1.01458e-07V340M337.942 1.01458e-07L337.942 340M380.223 1.01458e-07L380.223 340M422.504 1.01458e-07L422.504 340M464.784 1.01458e-07L464.784 340M507.065 1.01458e-07L507.065 340M549.345 1.01458e-07L549.345 340M591.626 1.01458e-07L591.626 340M633 19.0615L2.72741e-08 19.0615M633 61.4201L2.72741e-08 61.4201M633 103.779L2.72741e-08 103.779M633 146.138L2.72741e-08 146.138M633 188.496L2.72741e-08 188.496M633 230.855L2.72741e-08 230.855M633 273.214L2.72741e-08 273.214M633 315.572H2.72741e-08" stroke="#DAD6EB"/>
</svg>
